# xmcd CD database file
#
# Track frame offsets:
#	150
#	26143
#	41995
#	67304
#	81050
#	93987
#	108466
#	121107
#	143687
#	160687
#	179082
#	192097
#	202150
#
# Disc length: 2934 seconds
#
# Revision: 0
# Processed by: cddbd v1.5PL3 Copyright (c) Steve Scherf et al.
# Submitted via: CDex 1.51
#
DISCID=bc0b740d
DTITLE=Sojiro - Ocarina Etude Classical Master Pieces by Sojiro
DYEAR=1998
DGENRE=New Age
TTITLE0=(Japanise Titles)
TTITLE1=(Japanise Titles)
TTITLE2=(Japanise Titles)
TTITLE3=(Japanise Titles)
TTITLE4=(Japanise Titles)
TTITLE5=(Japanise Titles)
TTITLE6=VAIENNUT VIULU
TTITLE7=(Japanise Titles)
TTITLE8=(Japanise Titles)
TTITLE9=SOI KUNNIAKSI LUOJAN
TTITLE10=(Japanise Titles)
TTITLE11=(Japanise Titles)
TTITLE12=(Japanise Titles)
EXTD=YEAR: 1998
EXTT0=
EXTT1=
EXTT2=
EXTT3=
EXTT4=
EXTT5=
EXTT6=
EXTT7=
EXTT8=
EXTT9=
EXTT10=
EXTT11=
EXTT12=
PLAYORDER=
